<svg width="24" height="24" viewBox="0 0 24 24" fill="none" xmlns="http://www.w3.org/2000/svg">
<path opacity="0.48" d="M20.331 2C21.3436 2 22.1644 2.82081 22.1644 3.83333C22.1644 4.84586 21.3436 5.66667 20.331 5.66667C20.0152 5.66667 19.718 5.5868 19.4586 5.44615L16.4336 8.92577C16.5683 9.18091 16.6445 9.47164 16.6445 9.78018C16.6445 10.7927 15.8237 11.6135 14.8112 11.6135C13.8291 11.6135 13.0273 10.8413 12.98 9.87094L10.7766 9.11245C10.4404 9.52023 9.93129 9.78018 9.36149 9.78018C9.03436 9.78018 8.72725 9.6945 8.46136 9.54437L5.58575 11.9571C5.63992 12.1302 5.66911 12.3144 5.66911 12.5053C5.66911 13.5178 4.8483 14.3386 3.83577 14.3386C2.82325 14.3386 2.00244 13.5178 2.00244 12.5053C2.00244 11.4928 2.82325 10.672 3.83577 10.672C4.16668 10.672 4.47711 10.7596 4.7451 10.913L7.61471 8.50515C7.55849 8.32911 7.52815 8.14152 7.52815 7.94685C7.52815 6.93433 8.34896 6.11351 9.36149 6.11351C10.3373 6.11351 11.135 6.87583 11.1916 7.83739L13.4076 8.60065C13.7439 8.20089 14.2479 7.94685 14.8112 7.94685C15.0242 7.94685 15.2288 7.98319 15.419 8.05001L18.5883 4.40419C18.5295 4.22454 18.4977 4.03265 18.4977 3.83333C18.4977 2.82081 19.3185 2 20.331 2Z" fill="#212B36"/>
<path d="M21.25 10.6094C21.7563 10.6094 22.1667 11.0198 22.1667 11.526V22.2801C22.1667 22.5563 21.9428 22.7801 21.6667 22.7801H19C18.7239 22.7801 18.5 22.5563 18.5 22.2801V11.526C18.5 11.0198 18.9104 10.6094 19.4167 10.6094H21.25ZM15.75 17.0349C16.2563 17.0349 16.6667 17.4453 16.6667 17.9515V22.2801C16.6667 22.5563 16.4428 22.7801 16.1667 22.7801H13.5C13.2239 22.7801 13 22.5563 13 22.2801V17.9515C13 17.4453 13.4104 17.0349 13.9167 17.0349H15.75ZM10.25 15.1943C10.7563 15.1943 11.1667 15.6047 11.1667 16.111V22.2801C11.1667 22.5563 10.9428 22.7801 10.6667 22.7801H8C7.72386 22.7801 7.5 22.5563 7.5 22.2801V16.111C7.5 15.6047 7.91041 15.1943 8.41667 15.1943H10.25ZM4.75 19.9078C5.25626 19.9078 5.66667 20.3182 5.66667 20.8245V22.2801C5.66667 22.5563 5.44281 22.7801 5.16667 22.7801H2.5C2.22386 22.7801 2 22.5563 2 22.2801V20.8245C2 20.3182 2.41041 19.9078 2.91667 19.9078H4.75Z" fill="#212B36"/>
</svg>
