<svg width="24" height="24" viewBox="0 0 24 24" fill="none" xmlns="http://www.w3.org/2000/svg">
<path fill-rule="evenodd" clip-rule="evenodd" d="M19.15 10.42L20.38 8.57L20.39 8.56C22.4343 11.7129 22.5386 15.7457 20.66 19C20.3013 19.6213 19.6373 20.0028 18.92 20H5.06997C4.35975 19.9957 3.70508 19.6151 3.34997 19C1.06513 15.0022 1.80556 9.96097 5.14347 6.78901C8.48137 3.61706 13.5538 3.13444 17.43 5.62L15.58 6.85C12.4219 5.27021 8.60155 5.94784 6.17945 8.51743C3.75736 11.087 3.30647 14.9407 5.06997 18H18.93C20.2722 15.6708 20.3549 12.8231 19.15 10.42ZM12.005 15.9966C11.4742 15.9966 10.9651 15.7856 10.59 15.41C10.2144 15.0349 10.0034 14.5258 10.0034 13.995C10.0034 13.4642 10.2144 12.9551 10.59 12.58L19.08 6.92L13.42 15.41C13.0448 15.7856 12.5358 15.9966 12.005 15.9966Z" fill="#637381"/>
</svg>
