<svg width="16" height="16" viewBox="0 0 16 16" fill="none" xmlns="http://www.w3.org/2000/svg">
<path d="M6.66665 12.6667C6.51088 12.667 6.35993 12.6127 6.23999 12.5133C6.10365 12.4003 6.01789 12.2377 6.00163 12.0613C5.98537 11.885 6.03995 11.7094 6.15332 11.5733L9.13999 8L6.25999 4.42C6.14814 4.28228 6.09581 4.10564 6.11457 3.92922C6.13334 3.75279 6.22167 3.59112 6.35999 3.48C6.49943 3.35731 6.68374 3.29835 6.8685 3.31734C7.05327 3.33632 7.22173 3.43152 7.33332 3.58L10.5533 7.58C10.7555 7.82601 10.7555 8.18067 10.5533 8.42667L7.21999 12.4267C7.08434 12.5903 6.87881 12.6795 6.66665 12.6667Z" fill="#637381"/>
</svg>
