<svg width="16" height="16" viewBox="0 0 16 16" fill="none" xmlns="http://www.w3.org/2000/svg">
<path d="M8.00004 10.6667C7.84427 10.667 7.69331 10.6127 7.57337 10.5133L3.57337 7.18C3.28986 6.94435 3.25106 6.5235 3.4867 6.24C3.72234 5.95649 4.1432 5.91769 4.4267 6.15333L8.00004 9.14L11.5734 6.26C11.7111 6.14815 11.8877 6.09582 12.0642 6.11459C12.2406 6.13335 12.4023 6.22168 12.5134 6.36C12.6368 6.49857 12.6969 6.68231 12.6792 6.86703C12.6614 7.05176 12.5675 7.22074 12.42 7.33333L8.42004 10.5533C8.29665 10.637 8.14877 10.6769 8.00004 10.6667Z" fill="#637381"/>
</svg>
