<svg width="24" height="24" viewBox="0 0 24 24" fill="none" xmlns="http://www.w3.org/2000/svg">
<path fill-rule="evenodd" clip-rule="evenodd" d="M20 3C21.1046 3 22 3.89543 22 5V15C22 16.1046 21.1046 17 20 17H4C2.89543 17 2 16.1046 2 15V5C2 3.89543 2.89543 3 4 3H20ZM11.5 6H6.5C5.67157 6 5 6.67157 5 7.5V9.5C5 10.3284 5.67157 11 6.5 11H11.5C12.3284 11 13 10.3284 13 9.5V7.5C13 6.67157 12.3284 6 11.5 6Z" fill="#637381"/>
<path opacity="0.48" fill-rule="evenodd" clip-rule="evenodd" d="M12 16C12.5523 16 13 16.4477 13 17V20H16C16.5523 20 17 20.4477 17 21C17 21.5523 16.5523 22 16 22H8C7.44772 22 7 21.5523 7 21C7 20.4477 7.44772 20 8 20H11V17C11 16.4477 11.4477 16 12 16Z" fill="#637381"/>
</svg>
