<svg width="24" height="24" viewBox="0 0 24 24" fill="none" xmlns="http://www.w3.org/2000/svg">
<path fill-rule="evenodd" clip-rule="evenodd" d="M15.3 2.33L19.74 7.33C19.9067 7.5134 19.9994 7.75216 20 8V19.5C19.9921 20.171 19.7179 20.8114 19.2378 21.2802C18.7577 21.7491 18.111 22.008 17.44 22H6.56C5.88899 22.008 5.24229 21.7491 4.76218 21.2802C4.28208 20.8114 4.00791 20.171 4 19.5V4.5C4.00791 3.82898 4.28208 3.1886 4.76218 2.71975C5.24229 2.2509 5.88899 1.99199 6.56 2H14.56C14.8422 2.00066 15.1109 2.12052 15.3 2.33ZM14.5537 4.59224C14.3555 4.38019 14 4.52049 14 4.81079V7.15C13.9835 7.36128 14.0526 7.57032 14.1918 7.73016C14.3309 7.89 14.5285 7.98723 14.74 8H17.0027C17.2826 8 17.4276 7.66593 17.2365 7.46145L14.5537 4.59224Z" fill="#637381"/>
</svg>
