<svg width="571" height="431" viewBox="0 0 571 431" fill="none" xmlns="http://www.w3.org/2000/svg">
<path d="M570.305 373.436H0V373.721H570.305V373.436Z" fill="#EBEBEB"/>
<path d="M513.16 391.788H475.383V392.073H513.16V391.788Z" fill="#EBEBEB"/>
<path d="M377.793 394.89H367.881V395.176H377.793V394.89Z" fill="#EBEBEB"/>
<path d="M474.243 381.203H452.354V381.488H474.243V381.203Z" fill="#EBEBEB"/>
<path d="M109.099 383.119H59.8364V383.404H109.099V383.119Z" fill="#EBEBEB"/>
<path d="M126.482 383.119H119.262V383.404H126.482V383.119Z" fill="#EBEBEB"/>
<path d="M256.808 387.933H149.956V388.218H256.808V387.933Z" fill="#EBEBEB"/>
<path d="M270.324 322.564H50.0841C48.3588 322.561 46.7051 321.874 45.4862 320.653C44.2673 319.432 43.5826 317.777 43.5826 316.051V6.45585C43.5977 4.7404 44.2889 3.10015 45.5062 1.89138C46.7235 0.682607 48.3686 0.00293865 50.0841 0H270.324C272.052 0 273.708 0.686177 274.93 1.90758C276.151 3.12898 276.837 4.78556 276.837 6.51288V316.051C276.837 317.779 276.151 319.435 274.93 320.657C273.708 321.878 272.052 322.564 270.324 322.564ZM50.0841 0.228123C48.4344 0.231144 46.8533 0.888609 45.6878 2.05621C44.5224 3.22381 43.8678 4.80613 43.8678 6.45585V316.051C43.8678 317.701 44.5224 319.283 45.6878 320.451C46.8533 321.619 48.4344 322.276 50.0841 322.279H270.324C271.975 322.276 273.557 321.619 274.725 320.452C275.892 319.285 276.549 317.702 276.552 316.051V6.45585C276.549 4.80508 275.892 3.22278 274.725 2.05551C273.557 0.888238 271.975 0.231138 270.324 0.228123H50.0841Z" fill="#EBEBEB"/>
<path d="M517.05 322.564H296.798C295.072 322.561 293.417 321.874 292.196 320.653C290.975 319.433 290.288 317.778 290.285 316.051V6.45585C290.303 4.73936 290.997 3.09912 292.216 1.89067C293.435 0.682208 295.081 0.0029066 296.798 0H517.05C518.763 0.0059363 520.405 0.686931 521.62 1.89538C522.835 3.10383 523.525 4.74237 523.54 6.45585V316.051C523.54 317.775 522.857 319.428 521.64 320.649C520.424 321.869 518.773 322.558 517.05 322.564ZM296.798 0.228123C295.147 0.231138 293.565 0.888238 292.398 2.05551C291.23 3.22278 290.573 4.80508 290.57 6.45585V316.051C290.573 317.702 291.23 319.285 292.398 320.452C293.565 321.619 295.147 322.276 296.798 322.279H517.05C518.7 322.276 520.283 321.619 521.45 320.452C522.617 319.285 523.274 317.702 523.277 316.051V6.45585C523.274 4.80508 522.617 3.22278 521.45 2.05551C520.283 0.888238 518.7 0.231138 517.05 0.228123H296.798Z" fill="#EBEBEB"/>
<path d="M505.495 26.656V21.7628L503.009 21.5233C502.675 19.8974 502.036 18.3493 501.127 16.9609L502.746 15.0104L499.325 11.5886L497.306 13.1969C495.917 12.2872 494.369 11.6486 492.743 11.3148L492.515 8.7941H487.611L487.371 11.3148C485.745 11.6473 484.196 12.286 482.809 13.1969L480.847 11.5772L477.425 14.999L479.056 16.9951C478.142 18.381 477.503 19.93 477.174 21.5575L474.653 21.797V26.6903L477.174 26.9298C477.503 28.5573 478.142 30.1063 479.056 31.4922L477.436 33.4427L480.858 36.8645L482.82 35.2448C484.208 36.1557 485.756 36.7944 487.382 37.1268L487.622 39.6476H492.527L492.755 37.1268C494.381 36.793 495.929 36.1545 497.317 35.2448L499.279 36.8645L502.701 33.4427L501.081 31.4922C501.991 30.1038 502.629 28.5557 502.963 26.9298L505.495 26.656ZM490.086 30.7965C488.772 30.7987 487.488 30.4113 486.394 29.6832C485.301 28.9552 484.449 27.9192 483.944 26.7064C483.44 25.4936 483.307 24.1585 483.562 22.87C483.817 21.5816 484.448 20.3977 485.376 19.4681C486.304 18.5386 487.487 17.9052 488.775 17.6482C490.063 17.3911 491.398 17.5219 492.612 18.024C493.826 18.5261 494.863 19.3769 495.593 20.4689C496.323 21.5608 496.713 22.8447 496.713 24.1581C496.713 25.9167 496.015 27.6035 494.772 28.8481C493.53 30.0927 491.844 30.7934 490.086 30.7965Z" fill="#E0E0E0"/>
<path d="M525.353 40.4802V36.6478L523.369 36.4995C523.104 35.239 522.605 34.0395 521.897 32.9636L523.175 31.4238L520.46 28.7091L518.977 29.941C517.9 29.226 516.696 28.7228 515.43 28.4582L515.248 26.485H511.415L511.164 28.5152C509.899 28.7817 508.695 29.2848 507.617 29.998L506.088 28.7205L503.374 31.4352L504.64 32.975C503.935 34.0527 503.436 35.2515 503.168 36.5109L501.195 36.7048V40.5373L503.168 40.7312C503.433 41.9917 503.932 43.1912 504.64 44.2671L503.374 45.8069L506.088 48.5215L507.571 47.187C508.65 47.9003 509.853 48.4034 511.118 48.6698L511.312 50.6431H515.145L515.327 48.6698C516.593 48.4052 517.797 47.902 518.875 47.187L520.414 48.4645L523.129 45.7498L521.852 44.21C522.56 43.1341 523.059 41.9346 523.323 40.6741L525.353 40.4802ZM513.274 43.7652C512.245 43.7674 511.238 43.4643 510.382 42.8942C509.525 42.324 508.856 41.5125 508.461 40.5623C508.065 39.6121 507.961 38.566 508.16 37.5563C508.36 36.5466 508.854 35.6188 509.581 34.8903C510.308 34.1617 511.235 33.6652 512.244 33.4636C513.253 33.262 514.3 33.3643 515.251 33.7577C516.202 34.151 517.015 34.8176 517.587 35.6732C518.159 36.5288 518.464 37.5348 518.464 38.564C518.464 39.9415 517.918 41.2627 516.945 42.2378C515.972 43.2129 514.652 43.7622 513.274 43.7652Z" fill="#E0E0E0"/>
<path d="M505.495 51.3844V48.1565L503.841 47.9968C503.621 46.9343 503.199 45.9238 502.598 45.0198L503.67 43.7309L501.389 41.4497L500.1 42.5219C499.194 41.926 498.184 41.5044 497.123 41.2786L496.964 39.6248H493.747L493.587 41.2786C492.526 41.5044 491.517 41.926 490.61 42.5219L489.321 41.4497L487.04 43.7309L488.101 45.0198C487.509 45.9269 487.091 46.9365 486.869 47.9968L485.204 48.1565V51.3844L486.869 51.5327C487.091 52.5931 487.509 53.6027 488.101 54.5097L487.04 55.7986L489.321 58.0798L490.61 57.019C491.515 57.616 492.525 58.0342 493.587 58.2509L493.747 59.9162H496.964L497.123 58.2509C498.185 58.0342 499.196 57.616 500.1 57.019L501.389 58.0798L503.67 55.7986L502.598 54.5097C503.199 53.6057 503.621 52.5953 503.841 51.5327L505.495 51.3844ZM495.355 54.1333C494.491 54.1356 493.645 53.8813 492.925 53.4026C492.205 52.924 491.644 52.2425 491.311 51.4445C490.979 50.6464 490.891 49.7677 491.058 48.9195C491.225 48.0714 491.64 47.2919 492.251 46.6798C492.861 46.0677 493.64 45.6505 494.487 45.481C495.335 45.3116 496.214 45.3974 497.013 45.7277C497.812 46.058 498.495 46.6179 498.975 47.3366C499.456 48.0552 499.712 48.9003 499.712 49.7648C499.712 50.9214 499.254 52.0308 498.437 52.8498C497.62 53.6687 496.512 54.1303 495.355 54.1333Z" fill="#E0E0E0"/>
<path d="M57.5666 372.375L83.0478 203.006V372.375H89.8914V201.945L115.418 372.375H122.741L90.8039 159.047L89.8914 159.183V152.237H83.0478V159.149L82.1125 159.047L50.0956 372.375H57.5666Z" fill="#E0E0E0"/>
<path d="M121.543 182.703H51.0308L56.7453 123.79H115.84L121.543 182.703Z" fill="#EBEBEB"/>
<path d="M285.152 424.945C407.292 424.945 506.305 419.165 506.305 412.034C506.305 404.903 407.292 399.122 285.152 399.122C163.013 399.122 63.9996 404.903 63.9996 412.034C63.9996 419.165 163.013 424.945 285.152 424.945Z" fill="#F5F5F5"/>
<path d="M506.431 42.8983V272.446C506.369 275.164 505.272 277.756 503.364 279.693C501.457 281.631 498.882 282.767 496.165 282.871H165.833C160.347 282.871 156.263 277.944 156.263 272.446V42.8983C156.225 41.6194 156.445 40.3459 156.909 39.1536C157.373 37.9613 158.072 36.8746 158.965 35.9583C159.858 35.0419 160.927 34.3147 162.106 33.8198C163.286 33.3249 164.554 33.0725 165.833 33.0777H496.165C498.82 33.0493 501.38 34.0611 503.299 35.8964C505.217 37.7317 506.341 40.2449 506.431 42.8983Z" fill="#407BFF"/>
<path opacity="0.1" d="M506.431 71.5048V272.446C506.369 275.164 505.272 277.756 503.364 279.693C501.457 281.631 498.882 282.767 496.165 282.871H165.833C160.347 282.871 156.263 277.944 156.263 272.446V194.234C185.326 138.345 254.607 129.288 335.716 161.967C450.541 208.23 499.507 145.439 506.431 71.5048Z" fill="white"/>
<path opacity="0.2" d="M416.231 256.637H248.653C247.14 256.637 245.69 256.036 244.62 254.967C243.551 253.897 242.95 252.447 242.95 250.934C242.95 249.422 243.551 247.971 244.62 246.901C245.69 245.832 247.14 245.231 248.653 245.231H416.231C417.744 245.231 419.194 245.832 420.264 246.901C421.333 247.971 421.934 249.422 421.934 250.934C421.934 252.447 421.333 253.897 420.264 254.967C419.194 256.036 417.744 256.637 416.231 256.637Z" fill="black"/>
<path d="M248.653 255.496C247.443 255.496 246.282 255.016 245.427 254.16C244.571 253.305 244.09 252.144 244.09 250.934C244.09 249.724 244.571 248.564 245.427 247.708C246.282 246.852 247.443 246.372 248.653 246.372H347.703C348.913 246.372 350.074 246.852 350.929 247.708C351.785 248.564 352.266 249.724 352.266 250.934C352.266 252.144 351.785 253.305 350.929 254.16C350.074 255.016 348.913 255.496 347.703 255.496H248.653Z" fill="#407BFF"/>
<path opacity="0.7" d="M248.653 255.496C247.443 255.496 246.282 255.016 245.427 254.16C244.571 253.305 244.09 252.144 244.09 250.934C244.09 249.724 244.571 248.564 245.427 247.708C246.282 246.852 247.443 246.372 248.653 246.372H347.703C348.913 246.372 350.074 246.852 350.929 247.708C351.785 248.564 352.266 249.724 352.266 250.934C352.266 252.144 351.785 253.305 350.929 254.16C350.074 255.016 348.913 255.496 347.703 255.496H248.653Z" fill="white"/>
<path d="M182.418 264.918C193.048 273.461 189.341 314.238 191.337 320.511C193.333 326.785 201.888 331.917 201.888 331.917L189.957 345.89C189.957 345.89 179.977 344.156 172.392 327.902C164.807 311.649 182.418 264.918 182.418 264.918Z" fill="#263238"/>
<path opacity="0.2" d="M182.418 264.918C193.048 273.461 189.341 314.238 191.337 320.511C193.333 326.785 201.888 331.917 201.888 331.917L189.957 345.89C189.957 345.89 179.977 344.156 172.392 327.902C164.807 311.649 182.418 264.918 182.418 264.918Z" fill="black"/>
<path d="M171.091 354.444C171.091 354.444 247.512 333.126 257.071 359.942C266.629 386.758 197.325 408.121 158.967 409.479C120.608 410.836 104.936 383.826 116.251 358.243L171.091 354.444Z" fill="#407BFF"/>
<path opacity="0.2" d="M171.091 354.444C171.091 354.444 247.512 333.126 257.071 359.942C266.629 386.758 197.325 408.121 158.967 409.479C120.608 410.836 104.936 383.826 116.251 358.243L171.091 354.444Z" fill="black"/>
<path d="M245.995 397.845C245.953 397.872 245.903 397.887 245.853 397.887C245.802 397.887 245.753 397.872 245.71 397.845C245.672 397.819 245.645 397.781 245.632 397.737C245.62 397.693 245.623 397.647 245.642 397.605C245.767 397.183 247.045 393.487 248.322 393.1C248.46 393.07 248.603 393.075 248.739 393.115C248.875 393.155 248.998 393.228 249.098 393.328C249.275 393.477 249.41 393.671 249.488 393.889C249.566 394.108 249.585 394.343 249.543 394.571C249.336 395.26 248.917 395.867 248.345 396.305C247.612 396.892 246.826 397.407 245.995 397.845ZM246.326 397.126C247.522 396.604 248.49 395.668 249.052 394.491C249.086 394.335 249.073 394.172 249.017 394.022C248.96 393.872 248.861 393.742 248.733 393.647C248.699 393.603 248.652 393.571 248.598 393.557C248.544 393.542 248.487 393.546 248.436 393.567C248.325 393.599 248.223 393.658 248.14 393.738C247.347 394.749 246.748 395.898 246.372 397.126H246.326Z" fill="#407BFF"/>
<path d="M245.927 397.89C245.885 397.903 245.839 397.904 245.797 397.892C245.754 397.879 245.716 397.855 245.687 397.822C245.562 397.719 243.794 395.472 244.09 393.966C244.125 393.78 244.196 393.602 244.3 393.444C244.403 393.285 244.538 393.149 244.695 393.043C244.83 392.912 245.005 392.832 245.192 392.816C245.379 392.799 245.566 392.847 245.721 392.951C246.645 393.601 246.531 396.59 246.075 397.73V397.845L245.927 397.89ZM244.912 393.499C244.755 393.639 244.651 393.828 244.615 394.035C244.421 394.993 245.311 396.43 245.756 397.115C246.041 395.837 245.95 393.693 245.402 393.362C245.345 393.362 245.231 393.236 244.957 393.43L244.866 393.499H244.912Z" fill="#407BFF"/>
<path d="M168.126 411.406C168.139 411.358 168.165 411.315 168.202 411.281C168.238 411.247 168.283 411.223 168.331 411.212C168.376 411.207 168.422 411.216 168.461 411.238C168.5 411.261 168.531 411.296 168.548 411.338C168.776 411.726 170.521 415.216 169.894 416.402C169.824 416.524 169.722 416.624 169.599 416.692C169.477 416.761 169.338 416.794 169.198 416.79C168.969 416.817 168.736 416.782 168.525 416.688C168.314 416.593 168.133 416.443 168 416.254C167.652 415.621 167.512 414.895 167.601 414.178C167.685 413.239 167.861 412.311 168.126 411.406ZM168.4 412.136C167.949 413.362 167.949 414.709 168.4 415.935C168.489 416.069 168.615 416.174 168.763 416.239C168.91 416.303 169.073 416.325 169.232 416.3C169.289 416.303 169.345 416.29 169.393 416.261C169.442 416.233 169.481 416.191 169.506 416.14C169.549 416.034 169.576 415.923 169.586 415.809C169.414 414.524 169.012 413.279 168.4 412.136Z" fill="#407BFF"/>
<path d="M186.638 385.606L173.122 395.518L166.632 400.274L170.863 407.677L177.456 404.072L193.55 395.267L186.638 385.606Z" fill="#EBB376"/>
<path d="M172.962 407.448L168.879 398.449C168.825 398.331 168.748 398.225 168.652 398.137C168.556 398.049 168.444 397.981 168.322 397.938C168.199 397.894 168.07 397.875 167.94 397.883C167.81 397.89 167.683 397.924 167.567 397.981L163.164 400.137C163.164 400.137 157.039 402.612 156.321 404.597C154.039 410.414 162.582 430.546 165.24 430.557C166.21 430.557 166.791 429.052 166.928 428.094C167.35 425.037 167.43 417.372 167.818 414.828C168.274 411.863 171.24 409.581 172.665 408.669C172.85 408.532 172.98 408.335 173.035 408.112C173.089 407.889 173.063 407.654 172.962 407.448Z" fill="#263238"/>
<path d="M168.137 411.327C168.158 411.288 168.19 411.255 168.228 411.233C168.266 411.211 168.31 411.2 168.354 411.201C168.514 411.201 171.354 411.486 172.232 412.752C172.447 413.07 172.529 413.459 172.46 413.836C172.459 414.023 172.394 414.204 172.276 414.35C172.157 414.495 171.993 414.595 171.81 414.634C170.669 414.84 168.639 412.672 168.149 411.555V411.452C168.134 411.412 168.13 411.369 168.137 411.327ZM171.981 413.676C171.995 413.465 171.934 413.255 171.81 413.083C171.262 412.285 169.609 411.942 168.787 411.771C169.495 412.912 171.069 414.281 171.707 414.155C171.776 414.155 171.913 414.155 171.97 413.79V413.676H171.981Z" fill="#407BFF"/>
<path opacity="0.2" d="M186.638 385.606L173.122 395.518L177.456 404.072L193.55 395.267L186.638 385.606Z" fill="black"/>
<path d="M180.536 404.631L184.984 403.639L177.604 389.541L173.475 393.75L180.536 404.631Z" fill="#407BFF"/>
<path opacity="0.6" d="M180.536 404.631L184.984 403.639L177.604 389.541L173.475 393.75L180.536 404.631Z" fill="white"/>
<path d="M214.606 402.669L231.144 405.395L239.095 406.707L241.41 398.495L234.224 396.316L216.682 390.978L214.606 402.669Z" fill="#EBB376"/>
<path d="M239.79 397.16L236.209 406.365C236.163 406.487 236.142 406.617 236.146 406.747C236.151 406.877 236.181 407.006 236.235 407.124C236.289 407.243 236.366 407.35 236.461 407.439C236.557 407.527 236.668 407.597 236.791 407.642L241.41 409.273C241.41 409.273 247.467 411.92 249.394 411.076C255.097 408.612 263.561 388.446 261.701 386.541C261.017 385.845 259.546 386.484 258.759 387.066C256.284 388.891 250.774 394.206 248.664 395.7C246.223 397.457 242.494 396.909 240.874 396.556C240.651 396.512 240.42 396.548 240.221 396.659C240.023 396.77 239.87 396.947 239.79 397.16Z" fill="#263238"/>
<path opacity="0.2" d="M214.606 402.669L231.144 405.395L234.224 396.316L216.682 390.978L214.606 402.669Z" fill="black"/>
<path d="M231.373 394.651C231.373 394.651 162.617 354.091 139.348 355.174C116.08 356.258 114.061 379.367 123.653 392.199C133.246 405.03 151.028 408.167 151.028 408.167C151.028 408.167 138.96 391.058 140.706 386.313C142.451 381.568 149.1 397.651 149.1 397.651C149.1 397.651 191.702 403.228 228.818 406.376L231.373 394.651Z" fill="#407BFF"/>
<path d="M232.468 393.556L228.647 390.989L223.742 406.057H229.627L232.468 393.556Z" fill="#407BFF"/>
<path opacity="0.6" d="M232.468 393.556L228.647 390.989L223.742 406.057H229.627L232.468 393.556Z" fill="white"/>
<path d="M180.091 361.573C167.647 337.62 171.605 301.178 182.372 264.918C174.844 258.633 144.812 254.39 121.92 261.051C121.92 261.051 107.388 314.899 109.099 373.721L180.091 361.573Z" fill="#263238"/>
<path d="M153.674 270.803C143.671 270.803 137.158 260.31 137.158 260.31C150.275 255.747 150.321 241.866 150.321 241.866L155.374 246.805L162.571 253.854C156.583 258.097 159.412 261.77 161.316 263.401C161.706 263.749 162.126 264.063 162.571 264.336C162.571 264.336 163.677 270.803 153.674 270.803Z" fill="#EBB376"/>
<path opacity="0.2" d="M161.316 263.401C149.043 264.781 149.91 246.406 149.91 246.406C151.751 246.377 153.591 246.51 155.408 246.805L162.605 253.854C156.583 258.097 159.412 261.77 161.316 263.401Z" fill="black"/>
<path d="M170.897 228.122C166.255 230.038 167.145 235.114 174.855 244.364C179.6 240.269 182.178 230.962 179.68 227.974C177.182 224.985 174.958 226.422 170.897 228.122Z" fill="#263238"/>
<path d="M177.764 248.653C177.343 249.891 176.848 251.102 176.281 252.28C171.719 261.622 158.51 263.435 152.671 254.196L152.602 254.105C148.747 247.889 150.195 242.083 151.804 232.023C152.162 229.691 153.107 227.488 154.551 225.622C155.994 223.756 157.888 222.288 160.055 221.355C162.222 220.422 164.591 220.055 166.938 220.289C169.286 220.523 171.535 221.35 173.475 222.693C181.163 228.042 180.707 240.064 177.764 248.653Z" fill="#EBB376"/>
<path d="M166.004 238.102C165.822 238.912 166.107 239.665 166.632 239.779C167.156 239.893 167.772 239.345 167.909 238.536C168.046 237.726 167.806 236.984 167.293 236.859C166.78 236.733 166.232 237.315 166.004 238.102Z" fill="#263238"/>
<path d="M175.175 240.178C174.992 240.977 175.277 241.729 175.814 241.843C176.35 241.957 176.954 241.421 177.102 240.6C177.251 239.779 176.988 239.038 176.464 238.923C175.939 238.809 175.357 239.368 175.175 240.178Z" fill="#263238"/>
<path d="M172.095 239.882C172.494 242.567 173.262 245.185 174.376 247.661C172.62 248.664 170.35 247.512 170.35 247.512L172.095 239.882Z" fill="#D58745"/>
<path d="M164.145 234.646C164.036 234.639 163.934 234.59 163.86 234.509C163.814 234.465 163.778 234.411 163.754 234.353C163.729 234.294 163.716 234.231 163.716 234.167C163.716 234.103 163.729 234.04 163.754 233.982C163.778 233.923 163.814 233.87 163.86 233.825C164.432 233.302 165.121 232.925 165.87 232.727C166.619 232.528 167.404 232.513 168.16 232.684C168.279 232.716 168.381 232.794 168.443 232.901C168.505 233.008 168.522 233.135 168.491 233.255C168.449 233.375 168.364 233.475 168.252 233.537C168.141 233.598 168.01 233.615 167.886 233.585C167.286 233.449 166.661 233.459 166.065 233.616C165.469 233.773 164.92 234.072 164.464 234.486C164.381 234.577 164.268 234.634 164.145 234.646Z" fill="#263238"/>
<path d="M180.045 238.022C179.956 237.998 179.875 237.95 179.811 237.884C179.747 237.818 179.702 237.736 179.68 237.646C179.557 237.049 179.294 236.491 178.913 236.015C178.533 235.539 178.045 235.16 177.49 234.909C177.37 234.862 177.271 234.771 177.216 234.654C177.161 234.537 177.153 234.404 177.194 234.281C177.238 234.161 177.326 234.063 177.441 234.008C177.556 233.953 177.689 233.944 177.81 233.985C178.516 234.29 179.14 234.76 179.628 235.355C180.116 235.95 180.455 236.654 180.616 237.406C180.631 237.468 180.634 237.532 180.624 237.594C180.615 237.657 180.593 237.717 180.56 237.771C180.527 237.825 180.484 237.872 180.433 237.909C180.382 237.947 180.323 237.973 180.262 237.988H180.045V238.022Z" fill="#263238"/>
<path d="M157.723 224.153C162.001 226.787 160.313 231.658 151.233 239.551C147.184 234.76 146.123 225.145 149.078 222.613C152.032 220.081 153.982 221.86 157.723 224.153Z" fill="#263238"/>
<path d="M145.291 238.935C145.364 240.203 145.687 241.444 146.241 242.587C146.795 243.73 147.569 244.753 148.519 245.596C151.074 247.877 153.8 245.893 154.313 242.722C154.781 239.859 153.994 235.251 150.891 234.247C147.789 233.243 145.12 235.798 145.291 238.935Z" fill="#EBB376"/>
<path d="M162.571 247.615C162.571 247.615 163.62 251.242 168.479 252.086" stroke="#263238" stroke-width="0.557248" stroke-linecap="round" stroke-linejoin="round"/>
<path d="M171.308 239.95C171.308 240.627 171.107 241.288 170.731 241.851C170.355 242.414 169.821 242.852 169.196 243.111C168.571 243.37 167.883 243.438 167.219 243.306C166.555 243.174 165.945 242.848 165.467 242.37C164.988 241.891 164.662 241.281 164.53 240.618C164.398 239.954 164.466 239.266 164.725 238.641C164.984 238.015 165.423 237.481 165.985 237.105C166.548 236.729 167.21 236.528 167.886 236.528C168.794 236.528 169.664 236.889 170.306 237.53C170.948 238.172 171.308 239.042 171.308 239.95Z" stroke="#263238" stroke-width="0.557248" stroke-linecap="round" stroke-linejoin="round"/>
<path d="M180.627 241.866C180.627 242.543 180.426 243.205 180.05 243.767C179.674 244.33 179.14 244.769 178.515 245.028C177.889 245.287 177.201 245.354 176.537 245.222C175.874 245.09 175.264 244.764 174.785 244.286C174.307 243.807 173.981 243.198 173.849 242.534C173.717 241.87 173.785 241.182 174.044 240.557C174.303 239.931 174.741 239.397 175.304 239.021C175.867 238.645 176.528 238.444 177.205 238.444C178.113 238.444 178.983 238.805 179.625 239.447C180.266 240.088 180.627 240.959 180.627 241.866Z" stroke="#263238" stroke-width="0.557248" stroke-linecap="round" stroke-linejoin="round"/>
<path d="M171.308 240.885C171.716 240.667 172.191 240.612 172.637 240.73C173.084 240.849 173.469 241.133 173.715 241.524" stroke="#263238" stroke-width="0.557248" stroke-linecap="round" stroke-linejoin="round"/>
<path d="M164.464 239.243C164.464 239.243 154.553 235.068 152.705 234.68" stroke="#263238" stroke-width="0.557248" stroke-linecap="round" stroke-linejoin="round"/>
<path d="M148.975 222.75C148.975 222.75 147.948 214.697 156.172 213.362C164.396 212.028 175.152 214.092 178.483 212.667C178.352 213.38 178.075 214.059 177.669 214.66C177.262 215.261 176.735 215.77 176.121 216.157C176.121 216.157 182.395 218.438 187.334 216.476C187.334 216.476 185.189 222.419 182.418 224.7H184.779C184.779 224.7 180.102 229.171 174.411 229.262C168.719 229.354 163.358 221.518 157.723 224.153C152.089 226.787 148.975 222.75 148.975 222.75Z" fill="#263238"/>
<path opacity="0.4" d="M177.764 248.653C177.343 249.891 176.848 251.102 176.281 252.28C171.719 261.622 158.51 263.435 152.671 254.196L152.602 254.105C149.591 248.755 151.998 242.916 151.998 242.916L153.754 237.213L155.032 235.946C155.032 235.946 155.328 241.729 156.229 243.36C157.13 244.991 162.263 245.471 163.312 245.756C164.362 246.041 166.848 249.006 168.08 249.805C169.312 250.603 173.783 249.942 174.365 250.603C174.947 251.265 177.764 248.653 177.764 248.653Z" fill="black"/>
<path opacity="0.2" d="M126.482 340.472L150.138 366.706C150.138 366.706 176.281 366.124 208.036 381.648C208.036 381.648 242.106 367.573 245.242 355.882C248.379 344.19 173.715 352.46 173.715 352.46L126.482 340.472Z" fill="black"/>
<path d="M133.166 332.773L171.091 345.183C171.091 345.183 184.642 342.183 187.06 342.183C189.478 342.183 198.842 349.791 193.55 352.448C188.258 355.106 173.806 355.448 172.232 354.593C170.658 353.737 128.604 343.894 128.604 343.894L133.166 332.773Z" fill="#EBB376"/>
<path d="M121.92 261.051C130.497 259.386 115.612 311.672 119.262 319.371C122.912 327.07 137.158 331.917 137.158 331.917L130.6 346.392C130.6 346.392 111.209 342.73 100.659 329.283C90.1081 315.835 107.913 263.766 121.92 261.051Z" fill="#263238"/>
<path opacity="0.2" d="M121.92 261.051C130.497 259.386 115.612 311.672 119.262 319.371C122.912 327.07 137.158 331.917 137.158 331.917L130.6 346.392C130.6 346.392 111.209 342.73 100.659 329.283C90.1081 315.835 107.913 263.766 121.92 261.051Z" fill="black"/>
<path d="M137.158 330.777L129.174 346.414L136.018 347.886L142.291 333.491L137.158 330.777Z" fill="#263238"/>
<path opacity="0.2" d="M137.158 330.777L129.174 346.414L136.018 347.886L142.291 333.491L137.158 330.777Z" fill="white"/>
<path d="M152.842 352.448V354.935C152.844 355.764 153.165 356.56 153.738 357.159C154.311 357.758 155.093 358.113 155.921 358.151H247.615C248.47 358.127 249.285 357.784 249.9 357.188C250.514 356.593 250.883 355.789 250.934 354.935V352.448H152.842Z" fill="#263238"/>
<path opacity="0.2" d="M152.842 352.448V354.935C152.844 355.764 153.165 356.56 153.738 357.159C154.311 357.758 155.093 358.113 155.921 358.151H247.615C248.47 358.127 249.285 357.784 249.9 357.188C250.514 356.593 250.883 355.789 250.934 354.935V352.448H152.842Z" fill="white"/>
<path opacity="0.2" d="M187.06 352.448V354.935C187.065 355.765 187.388 356.561 187.964 357.16C188.539 357.758 189.322 358.113 190.151 358.151H247.615C248.47 358.127 249.285 357.784 249.9 357.188C250.514 356.593 250.883 355.789 250.934 354.935V352.448H187.06Z" fill="white"/>
<path d="M190.151 355.87H250.729C251.701 355.823 252.638 355.489 253.422 354.91C254.205 354.332 254.8 353.535 255.131 352.619L269.024 309.037C269.183 308.665 269.246 308.26 269.207 307.858C269.169 307.455 269.029 307.069 268.802 306.735C268.574 306.401 268.267 306.13 267.907 305.946C267.547 305.762 267.147 305.672 266.743 305.683H206.12C205.139 305.755 204.201 306.11 203.42 306.705C202.638 307.301 202.046 308.111 201.717 309.037L187.824 352.562C187.663 352.935 187.601 353.342 187.643 353.746C187.684 354.149 187.829 354.536 188.062 354.867C188.295 355.199 188.61 355.466 188.976 355.641C189.341 355.817 189.746 355.896 190.151 355.87Z" fill="#263238"/>
<path opacity="0.2" d="M190.151 355.87H250.729C251.701 355.823 252.638 355.489 253.422 354.91C254.205 354.332 254.8 353.535 255.131 352.619L269.024 309.037C269.183 308.665 269.246 308.26 269.207 307.858C269.169 307.455 269.029 307.069 268.802 306.735C268.574 306.401 268.267 306.13 267.907 305.946C267.547 305.762 267.147 305.672 266.743 305.683H206.12C205.139 305.755 204.201 306.11 203.42 306.705C202.638 307.301 202.046 308.111 201.717 309.037L187.824 352.562C187.663 352.935 187.601 353.342 187.643 353.746C187.684 354.149 187.829 354.536 188.062 354.867C188.295 355.199 188.61 355.466 188.976 355.641C189.341 355.817 189.746 355.896 190.151 355.87Z" fill="white"/>
<path opacity="0.2" d="M192.432 355.87H250.729C251.701 355.823 252.638 355.489 253.422 354.91C254.205 354.332 254.8 353.535 255.132 352.619L269.024 309.037C269.183 308.665 269.246 308.26 269.207 307.858C269.169 307.455 269.029 307.069 268.802 306.735C268.575 306.401 268.267 306.13 267.907 305.946C267.547 305.762 267.147 305.672 266.743 305.683H208.401C207.421 305.755 206.483 306.11 205.701 306.705C204.919 307.301 204.327 308.111 203.998 309.037L190.105 352.562C189.945 352.935 189.882 353.342 189.924 353.746C189.965 354.149 190.11 354.536 190.343 354.867C190.577 355.199 190.891 355.466 191.257 355.641C191.623 355.817 192.027 355.896 192.432 355.87Z" fill="white"/>
<path opacity="0.2" d="M234.19 325.998L225.806 331.94L229.434 337.871L237.817 331.94L234.19 325.998Z" fill="white"/>
<path opacity="0.2" d="M276.153 44.1416H199.447C193.941 44.1416 189.478 48.6048 189.478 54.1105V130.816C189.478 136.322 193.941 140.785 199.447 140.785H276.153C281.659 140.785 286.122 136.322 286.122 130.816V54.1105C286.122 48.6048 281.659 44.1416 276.153 44.1416Z" fill="black"/>
<path d="M289.201 33.5339H224.94C220.322 33.5339 216.579 37.2771 216.579 41.8946V106.157C216.579 110.774 220.322 114.517 224.94 114.517H289.201C293.819 114.517 297.562 110.774 297.562 106.157V41.8946C297.562 37.2771 293.819 33.5339 289.201 33.5339Z" fill="#407BFF"/>
<path opacity="0.3" d="M289.201 33.5339H224.94C220.322 33.5339 216.579 37.2771 216.579 41.8946V106.157C216.579 110.774 220.322 114.517 224.94 114.517H289.201C293.819 114.517 297.562 110.774 297.562 106.157V41.8946C297.562 37.2771 293.819 33.5339 289.201 33.5339Z" fill="white"/>
<path d="M263.31 64.6725V59.7793L260.789 59.5398C260.459 57.9128 259.82 56.3641 258.907 54.9774L260.527 53.0155L257.105 49.5937L255.154 51.2133C253.766 50.3037 252.218 49.6651 250.592 49.3313L250.341 46.765H245.448L245.231 49.3313C243.605 49.6651 242.057 50.3037 240.669 51.2133L238.718 49.5937L235.296 53.0155L236.916 54.9774C236.003 56.3641 235.364 57.9128 235.034 59.5398L232.513 59.7793V64.6725L235.034 64.9121C235.368 66.538 236.006 68.0861 236.916 69.4745L235.296 71.4363L238.718 74.8582L240.669 73.2385C242.057 74.1481 243.605 74.7867 245.231 75.1205L245.471 77.6413H250.364L250.603 75.1205C252.229 74.7867 253.777 74.1481 255.166 73.2385L257.116 74.8582L260.538 71.4363L258.918 69.4403C259.828 68.0519 260.467 66.5038 260.8 64.8778L263.31 64.6725ZM247.9 68.8586C246.586 68.8608 245.301 68.4731 244.208 67.7446C243.114 67.016 242.262 65.9793 241.758 64.7659C241.254 63.5524 241.122 62.2167 241.377 60.9279C241.633 59.6392 242.266 58.4553 243.195 57.5262C244.124 56.5971 245.308 55.9647 246.596 55.7089C247.885 55.4531 249.221 55.5855 250.434 56.0894C251.648 56.5932 252.684 57.4459 253.413 58.5393C254.142 59.6327 254.529 60.9177 254.527 62.2316C254.524 63.9883 253.825 65.6721 252.583 66.9143C251.341 68.1564 249.657 68.8556 247.9 68.8586Z" fill="white"/>
<path d="M283.156 78.5081V74.6643L281.183 74.4818C280.922 73.2167 280.423 72.0128 279.712 70.9345L280.978 69.4061L278.309 66.6914L276.78 67.9575C275.702 67.2463 274.498 66.7469 273.233 66.4861L273.05 64.5014H269.184L269.001 66.4861C267.736 66.7469 266.532 67.2463 265.454 67.9575L263.926 66.6914L261.2 69.4061L262.466 70.9345C261.754 72.0128 261.255 73.2167 260.994 74.4818L259.021 74.6643V78.5081L260.994 78.6906C261.255 79.9557 261.754 81.1596 262.466 82.2379L261.2 83.7663L263.914 86.481L265.443 85.2149C266.521 85.9261 267.725 86.4255 268.99 86.6863L269.172 88.6595H273.016L273.199 86.6863C274.464 86.4255 275.668 85.9261 276.746 85.2149L278.274 86.481L280.989 83.7663L279.723 82.2379C280.434 81.1596 280.934 79.9557 281.194 78.6906L283.156 78.5081ZM271.077 81.7817C270.049 81.7817 269.043 81.4766 268.188 80.9051C267.332 80.3336 266.666 79.5213 266.272 78.5709C265.878 77.6205 265.775 76.5747 265.976 75.5658C266.177 74.5569 266.672 73.6301 267.399 72.9027C268.127 72.1753 269.054 71.6799 270.063 71.4793C271.071 71.2786 272.117 71.3816 273.068 71.7752C274.018 72.1689 274.83 72.8355 275.402 73.6909C275.973 74.5462 276.278 75.5518 276.278 76.5805C276.278 77.9599 275.73 79.2829 274.755 80.2583C273.78 81.2337 272.457 81.7817 271.077 81.7817Z" fill="white"/>
<path d="M263.31 89.401V86.173L261.644 86.0247C261.428 84.9629 261.009 83.9523 260.413 83.0478L261.473 81.7589L259.192 79.4776L257.903 80.5384C256.997 79.9454 255.987 79.5275 254.926 79.3066L254.767 77.6413H251.539L251.379 79.3066C250.318 79.5275 249.309 79.9454 248.402 80.5384L247.113 79.4776L244.832 81.7589L245.893 83.0478C245.296 83.9523 244.877 84.9629 244.661 86.0247L242.995 86.173V89.401L244.661 89.5606C244.882 90.6212 245.3 91.631 245.893 92.5376L244.832 93.8265L247.113 96.1077L248.402 95.047C249.31 95.6389 250.319 96.0602 251.379 96.2902L251.539 97.9441H254.767L254.926 96.2902C255.986 96.0602 256.995 95.6389 257.903 95.047L259.192 96.1077L261.473 93.8265L260.413 92.5376C261.006 91.631 261.423 90.6212 261.644 89.5606L263.31 89.401ZM253.215 92.1498C252.35 92.1521 251.504 91.8975 250.784 91.4183C250.064 90.9392 249.502 90.257 249.17 89.4583C248.838 88.6596 248.751 87.7803 248.919 86.9318C249.087 86.0834 249.503 85.3039 250.115 84.6923C250.727 84.0806 251.506 83.6644 252.354 83.4962C253.203 83.328 254.082 83.4154 254.881 83.7475C255.68 84.0795 256.362 84.6412 256.841 85.3614C257.32 86.0815 257.575 86.9277 257.572 87.7927C257.572 88.9483 257.113 90.0565 256.296 90.8736C255.479 91.6908 254.371 92.1498 253.215 92.1498Z" fill="white"/>
<path opacity="0.2" d="M292.623 33.5339H228.361C223.744 33.5339 220.001 37.2771 220.001 41.8946V106.157C220.001 110.774 223.744 114.517 228.361 114.517H292.623C297.241 114.517 300.984 110.774 300.984 106.157V41.8946C300.984 37.2771 297.241 33.5339 292.623 33.5339Z" fill="white"/>
<path opacity="0.2" d="M415.467 137.945H344.555C339.465 137.945 335.339 142.071 335.339 147.161V218.073C335.339 223.163 339.465 227.289 344.555 227.289H415.467C420.557 227.289 424.683 223.163 424.683 218.073V147.161C424.683 142.071 420.557 137.945 415.467 137.945Z" fill="black"/>
<path d="M424.923 133.166H365.508C361.244 133.166 357.786 136.623 357.786 140.888V200.302C357.786 204.567 361.244 208.024 365.508 208.024H424.923C429.187 208.024 432.645 204.567 432.645 200.302V140.888C432.645 136.623 429.187 133.166 424.923 133.166Z" fill="#407BFF"/>
<path opacity="0.2" d="M424.923 133.166H365.508C361.244 133.166 357.786 136.623 357.786 140.888V200.302C357.786 204.567 361.244 208.024 365.508 208.024H424.923C429.187 208.024 432.645 204.567 432.645 200.302V140.888C432.645 136.623 429.187 133.166 424.923 133.166Z" fill="white"/>
<path d="M398.073 182.623C398.073 183.158 397.914 183.681 397.616 184.126C397.319 184.571 396.896 184.917 396.401 185.122C395.907 185.326 395.363 185.379 394.838 185.273C394.313 185.168 393.832 184.91 393.454 184.53C393.076 184.151 392.82 183.668 392.717 183.143C392.614 182.618 392.669 182.074 392.875 181.581C393.082 181.087 393.43 180.665 393.876 180.37C394.322 180.074 394.846 179.917 395.381 179.92C396.096 179.923 396.78 180.209 397.285 180.715C397.789 181.222 398.073 181.908 398.073 182.623Z" fill="white"/>
<path d="M395.141 155.659C391.616 155.657 388.126 156.351 384.869 157.699C381.612 159.047 378.653 161.024 376.16 163.516C373.668 166.009 371.691 168.968 370.343 172.225C368.994 175.482 368.301 178.973 368.303 182.497H389.735C389.699 181.783 389.815 181.07 390.076 180.404C390.337 179.738 390.736 179.135 391.247 178.634C391.758 178.134 392.369 177.748 393.041 177.502C393.712 177.255 394.428 177.154 395.141 177.205C395.689 177.232 396.231 177.335 396.75 177.513L406.798 165.845L399.704 179.646C400.259 180.492 400.549 181.485 400.536 182.497H422.025C422.025 178.969 421.33 175.475 419.978 172.216C418.627 168.957 416.646 165.996 414.149 163.504C411.651 161.011 408.687 159.035 405.426 157.689C402.165 156.343 398.67 155.653 395.141 155.659Z" fill="white"/>
<path opacity="0.2" d="M428.082 133.166H368.668C364.403 133.166 360.946 136.623 360.946 140.888V200.302C360.946 204.567 364.403 208.024 368.668 208.024H428.082C432.347 208.024 435.804 204.567 435.804 200.302V140.888C435.804 136.623 432.347 133.166 428.082 133.166Z" fill="white"/>
<path opacity="0.2" d="M437.241 66.5431H375.021C370.555 66.5431 366.934 70.1638 366.934 74.6301V136.85C366.934 141.317 370.555 144.937 375.021 144.937H437.241C441.707 144.937 445.328 141.317 445.328 136.85V74.6301C445.328 70.1638 441.707 66.5431 437.241 66.5431Z" fill="black"/>
<path d="M446.868 59.631H394.731C390.989 59.631 387.955 62.6644 387.955 66.4063V118.544C387.955 122.285 390.989 125.319 394.731 125.319H446.868C450.61 125.319 453.643 122.285 453.643 118.544V66.4063C453.643 62.6644 450.61 59.631 446.868 59.631Z" fill="#407BFF"/>
<path opacity="0.1" d="M446.868 59.631H394.731C390.989 59.631 387.955 62.6644 387.955 66.4063V118.544C387.955 122.285 390.989 125.319 394.731 125.319H446.868C450.61 125.319 453.643 122.285 453.643 118.544V66.4063C453.643 62.6644 450.61 59.631 446.868 59.631Z" fill="white"/>
<path d="M439.135 76.2953C439.135 75.7236 438.907 75.1753 438.503 74.771C438.099 74.3667 437.551 74.1396 436.979 74.1396H404.791C404.219 74.1396 403.671 74.3667 403.266 74.771C402.862 75.1753 402.635 75.7236 402.635 76.2953V83.3899C402.635 83.9617 402.862 84.51 403.266 84.9143C403.671 85.3186 404.219 85.5457 404.791 85.5457H436.979C437.551 85.5457 438.099 85.3186 438.503 84.9143C438.907 84.51 439.135 83.9617 439.135 83.3899V76.2953ZM428.504 80.1392H426.656V78.2914H428.504V80.1392ZM433.443 81.0631C433.074 81.0653 432.713 80.9579 432.406 80.7545C432.098 80.5511 431.858 80.2608 431.716 79.9207C431.574 79.5805 431.536 79.2057 431.608 78.844C431.679 78.4823 431.856 78.15 432.117 77.8893C432.378 77.6286 432.71 77.4513 433.072 77.3799C433.433 77.3085 433.808 77.3463 434.148 77.4884C434.489 77.6306 434.779 77.8706 434.982 78.1781C435.186 78.4856 435.293 78.8466 435.291 79.2153C435.291 79.4589 435.243 79.7001 435.149 79.9251C435.055 80.15 434.918 80.3542 434.746 80.5259C434.573 80.6977 434.368 80.8335 434.142 80.9257C433.917 81.0179 433.675 81.0646 433.432 81.0631H433.443Z" fill="white"/>
<path d="M439.135 88.8421C439.135 88.2703 438.907 87.722 438.503 87.3177C438.099 86.9134 437.551 86.6863 436.979 86.6863H404.791C404.219 86.6863 403.671 86.9134 403.266 87.3177C402.862 87.722 402.635 88.2703 402.635 88.8421V95.9367C402.635 96.5084 402.862 97.0567 403.266 97.461C403.671 97.8653 404.219 98.0924 404.791 98.0924H436.979C437.551 98.0924 438.099 97.8653 438.503 97.461C438.907 97.0567 439.135 96.5084 439.135 95.9367V88.8421ZM428.504 93.4045H426.656V91.5567H428.504V93.4045ZM433.443 94.3284C433.078 94.3284 432.72 94.22 432.416 94.017C432.113 93.814 431.876 93.5254 431.736 93.1877C431.596 92.8501 431.559 92.4785 431.631 92.1201C431.702 91.7617 431.878 91.4324 432.136 91.174C432.395 90.9156 432.724 90.7396 433.082 90.6683C433.441 90.597 433.812 90.6336 434.15 90.7735C434.488 90.9133 434.776 91.1502 434.979 91.454C435.182 91.7579 435.291 92.1151 435.291 92.4806C435.291 92.7237 435.243 92.9644 435.149 93.1887C435.055 93.413 434.918 93.6164 434.745 93.7873C434.572 93.9581 434.367 94.0929 434.141 94.1838C433.916 94.2747 433.675 94.32 433.432 94.317L433.443 94.3284Z" fill="white"/>
<path d="M439.135 101.389C439.135 100.817 438.907 100.269 438.503 99.8644C438.099 99.4601 437.551 99.233 436.979 99.233H404.791C404.219 99.233 403.671 99.4601 403.266 99.8644C402.862 100.269 402.635 100.817 402.635 101.389V108.483C402.635 109.055 402.862 109.603 403.266 110.008C403.671 110.412 404.219 110.639 404.791 110.639H436.979C437.551 110.639 438.099 110.412 438.503 110.008C438.907 109.603 439.135 109.055 439.135 108.483V101.389ZM428.504 106.658H426.656V104.811H428.504V106.658ZM433.443 107.582C433.078 107.582 432.72 107.474 432.416 107.271C432.113 107.068 431.876 106.779 431.736 106.442C431.596 106.104 431.559 105.732 431.631 105.374C431.702 105.016 431.878 104.686 432.136 104.428C432.395 104.169 432.724 103.993 433.082 103.922C433.441 103.851 433.812 103.887 434.15 104.027C434.488 104.167 434.776 104.404 434.979 104.708C435.182 105.012 435.291 105.369 435.291 105.734C435.291 105.978 435.243 106.219 435.149 106.444C435.055 106.669 434.918 106.873 434.746 107.045C434.573 107.217 434.368 107.353 434.142 107.445C433.917 107.537 433.675 107.584 433.432 107.582H433.443Z" fill="white"/>
<path opacity="0.2" d="M449.651 59.631H397.514C393.772 59.631 390.739 62.6644 390.739 66.4063V118.544C390.739 122.285 393.772 125.319 397.514 125.319H449.651C453.393 125.319 456.426 122.285 456.426 118.544V66.4063C456.426 62.6644 453.393 59.631 449.651 59.631Z" fill="white"/>
<path opacity="0.2" d="M325.758 127.246H249.052C243.546 127.246 239.083 131.71 239.083 137.215V213.921C239.083 219.427 243.546 223.89 249.052 223.89H325.758C331.264 223.89 335.727 219.427 335.727 213.921V137.215C335.727 131.71 331.264 127.246 325.758 127.246Z" fill="black"/>
<path d="M334.381 120.414H270.119C265.502 120.414 261.758 124.157 261.758 128.775V193.037C261.758 197.654 265.502 201.397 270.119 201.397H334.381C338.998 201.397 342.742 197.654 342.742 193.037V128.775C342.742 124.157 338.998 120.414 334.381 120.414Z" fill="#407BFF"/>
<path opacity="0.5" d="M334.381 120.414H270.119C265.502 120.414 261.758 124.157 261.758 128.775V193.037C261.758 197.654 265.502 201.397 270.119 201.397H334.381C338.998 201.397 342.742 197.654 342.742 193.037V128.775C342.742 124.157 338.998 120.414 334.381 120.414Z" fill="white"/>
<path d="M279.849 183.136C279.261 182.548 278.794 181.85 278.476 181.082C278.158 180.314 277.994 179.491 277.994 178.659C277.994 177.828 278.158 177.005 278.476 176.236C278.794 175.468 279.261 174.77 279.849 174.182L294.676 159.423C295.006 159.09 295.399 158.825 295.832 158.645C296.264 158.464 296.728 158.371 297.197 158.371C297.666 158.371 298.13 158.464 298.563 158.645C298.996 158.825 299.388 159.09 299.718 159.423L303.619 163.312C303.952 163.643 304.217 164.037 304.398 164.47C304.578 164.904 304.671 165.369 304.671 165.839C304.671 166.309 304.578 166.774 304.398 167.207C304.217 167.641 303.952 168.035 303.619 168.365L288.848 183.136C288.261 183.734 287.561 184.209 286.788 184.533C286.015 184.857 285.186 185.024 284.348 185.024C283.51 185.024 282.681 184.857 281.908 184.533C281.136 184.209 280.436 183.734 279.849 183.136Z" fill="white"/>
<path d="M307.063 158.83L304.155 155.921L320.842 139.234L324.481 138.504L323.751 142.143L307.063 158.83Z" fill="white"/>
<path d="M305.421 162.697L300.288 157.552C300.176 157.446 300.087 157.318 300.026 157.175C299.965 157.033 299.933 156.88 299.933 156.725C299.933 156.571 299.965 156.418 300.026 156.275C300.087 156.133 300.176 156.005 300.288 155.898C300.395 155.785 300.524 155.694 300.667 155.632C300.81 155.569 300.965 155.537 301.121 155.537C301.277 155.537 301.431 155.569 301.575 155.632C301.718 155.694 301.847 155.785 301.954 155.898L307.086 161.031C307.2 161.138 307.291 161.267 307.353 161.41C307.415 161.553 307.447 161.708 307.447 161.864C307.447 162.02 307.415 162.174 307.353 162.318C307.291 162.461 307.2 162.59 307.086 162.697C306.98 162.81 306.851 162.901 306.707 162.963C306.564 163.026 306.41 163.058 306.254 163.058C306.098 163.058 305.943 163.026 305.8 162.963C305.657 162.901 305.528 162.81 305.421 162.697Z" fill="white"/>
<path d="M298.509 152.842L291.471 145.781C292.783 142.257 290.125 137.922 287.24 136.782L287.183 142.211C287.183 142.816 286.942 143.396 286.514 143.824C286.087 144.252 285.506 144.492 284.901 144.492C284.296 144.492 283.716 144.252 283.288 143.824C282.861 143.396 282.62 142.816 282.62 142.211V136.873C281.296 137.41 280.153 138.313 279.325 139.477C278.496 140.64 278.017 142.016 277.944 143.443C277.961 145.127 278.587 146.748 279.707 148.006C280.826 149.264 282.364 150.075 284.035 150.287C285.197 150.465 286.387 150.299 287.456 149.808L294.551 156.925L298.509 152.842Z" fill="white"/>
<path d="M321.937 179.623V185.018C323.261 184.482 324.404 183.579 325.233 182.415C326.061 181.251 326.54 179.875 326.613 178.448C326.624 176.771 326.031 175.146 324.942 173.87C323.853 172.595 322.341 171.754 320.682 171.502C319.591 171.276 318.458 171.387 317.432 171.821L310.063 164.43L306.025 168.468L313.348 175.802C311.227 180.136 314.489 183.786 317.42 184.927V179.566C317.42 178.961 317.661 178.381 318.088 177.953C318.516 177.525 319.096 177.285 319.701 177.285C320.002 177.291 320.298 177.356 320.574 177.477C320.849 177.598 321.098 177.772 321.305 177.989C321.513 178.207 321.676 178.463 321.784 178.743C321.893 179.024 321.945 179.323 321.937 179.623Z" fill="white"/>
<path opacity="0.2" d="M337.803 120.414H273.541C268.923 120.414 265.18 124.157 265.18 128.775V193.037C265.18 197.654 268.923 201.397 273.541 201.397H337.803C342.42 201.397 346.164 197.654 346.164 193.037V128.775C346.164 124.157 342.42 120.414 337.803 120.414Z" fill="white"/>
<path d="M317.375 105.757L394.845 105.757C400.407 105.757 404.916 101.248 404.916 95.6857V18.2155C404.916 12.6531 400.407 8.14394 394.845 8.14394L317.375 8.14394C311.812 8.14394 307.303 12.6531 307.303 18.2155V95.6857C307.303 101.248 311.812 105.757 317.375 105.757Z" fill="#407BFF"/>
<path opacity="0.2" d="M389.256 23.6448H296.798C290.158 23.6448 284.776 29.0273 284.776 35.6669V128.125C284.776 134.764 290.158 140.147 296.798 140.147H389.256C395.895 140.147 401.278 134.764 401.278 128.125V35.6669C401.278 29.0273 395.895 23.6448 389.256 23.6448Z" fill="black"/>
<path opacity="0.5" d="M317.375 105.757L394.845 105.757C400.407 105.757 404.916 101.248 404.916 95.6857V18.2155C404.916 12.6531 400.407 8.14394 394.845 8.14394L317.375 8.14394C311.812 8.14394 307.303 12.6531 307.303 18.2155V95.6857C307.303 101.248 311.812 105.757 317.375 105.757Z" fill="white"/>
<path d="M356.075 26.7017L326.214 38.4271C326.214 38.4271 329.99 79.4891 356.11 87.1882C382.241 79.4891 386.016 38.4271 386.016 38.4271L356.075 26.7017ZM355.323 66.4633C355.128 66.7187 354.878 66.9264 354.592 67.0707C354.305 67.215 353.99 67.292 353.669 67.2959C353.345 67.2907 353.026 67.2095 352.739 67.059C352.452 66.9084 352.204 66.6927 352.015 66.4291L341.533 51.9776C341.373 51.7581 341.258 51.5094 341.195 51.2456C341.132 50.9818 341.121 50.7082 341.163 50.4402C341.205 50.1722 341.3 49.9152 341.442 49.6839C341.584 49.4525 341.769 49.2513 341.989 49.0918C342.208 48.9323 342.457 48.8176 342.721 48.7541C342.985 48.6907 343.258 48.6799 343.526 48.7223C343.794 48.7646 344.051 48.8594 344.283 49.0011C344.514 49.1428 344.715 49.3286 344.875 49.5481L353.726 61.7298L368.189 42.636C368.519 42.2014 369.008 41.9154 369.549 41.8406C370.09 41.7657 370.638 41.9082 371.074 42.2368C371.502 42.6026 371.779 43.1136 371.853 43.6716C371.927 44.2295 371.792 44.795 371.474 45.2594L355.323 66.4633Z" fill="white"/>
<path opacity="0.2" d="M321.492 105.757L398.962 105.757C404.525 105.757 409.034 101.248 409.034 95.6857V18.2155C409.034 12.6531 404.525 8.14394 398.962 8.14394L321.492 8.14394C315.93 8.14394 311.421 12.6531 311.421 18.2155V95.6857C311.421 101.248 315.93 105.757 321.492 105.757Z" fill="white"/>
<path d="M493.952 262.26H396.715V327.88H493.952V262.26Z" fill="#407BFF"/>
<path opacity="0.7" d="M493.952 262.26H396.715V327.88H493.952V262.26Z" fill="white"/>
<path d="M491.899 267.313H398.518V325.69H491.899V267.313Z" fill="#263238"/>
<path d="M479.569 276.358H402.795V278.069H479.569V276.358Z" fill="#E0E0E0"/>
<path d="M468.152 281.206H402.795V282.917H468.152V281.206Z" fill="#E0E0E0"/>
<path d="M479.569 286.053H402.795V287.764H479.569V286.053Z" fill="#E0E0E0"/>
<path d="M468.152 290.901H402.795V292.612H468.152V290.901Z" fill="#E0E0E0"/>
<path d="M411.087 295.749H402.795V297.46H411.087V295.749Z" fill="#E0E0E0"/>
<path d="M445.328 300.596H402.795V302.307H445.328V300.596Z" fill="#E0E0E0"/>
<path d="M468.152 305.444H402.795V307.155H468.152V305.444Z" fill="#E0E0E0"/>
<path d="M411.087 310.291H402.795V312.002H411.087V310.291Z" fill="#E0E0E0"/>
<path d="M411.087 315.139H402.795V316.85H411.087V315.139Z" fill="#E0E0E0"/>
<path d="M213.556 125.741H116.319V191.36H213.556V125.741Z" fill="#407BFF"/>
<path opacity="0.7" d="M213.556 125.741H116.319V191.36H213.556V125.741Z" fill="white"/>
<path d="M211.515 130.794H118.133V189.17H211.515V130.794Z" fill="#263238"/>
<path d="M199.185 139.839H122.41V141.55H199.185V139.839Z" fill="#E0E0E0"/>
<path d="M187.767 144.686H122.41V146.397H187.767V144.686Z" fill="#E0E0E0"/>
<path d="M199.185 149.534H122.41V151.245H199.185V149.534Z" fill="#E0E0E0"/>
<path d="M187.767 154.381H122.41V156.092H187.767V154.381Z" fill="#E0E0E0"/>
<path d="M130.702 159.229H122.41V160.94H130.702V159.229Z" fill="#E0E0E0"/>
<path d="M164.944 164.077H122.41V165.788H164.944V164.077Z" fill="#E0E0E0"/>
<path d="M187.767 168.924H122.41V170.635H187.767V168.924Z" fill="#E0E0E0"/>
<path d="M130.702 173.772H122.41V175.483H130.702V173.772Z" fill="#E0E0E0"/>
<path d="M130.702 178.619H122.41V180.33H130.702V178.619Z" fill="#E0E0E0"/>
</svg>
